<!DOCTYPE svg PUBLIC "-//W3C//DTD SVG 1.1//EN" "http://www.w3.org/Graphics/SVG/1.1/DTD/svg11.dtd">

<!-- Uploaded to: SVG Repo, www.svgrepo.com, Transformed by: SVG Repo Mixer Tools -->
<svg width="800px" height="800px" viewBox="0 0 32 32" xmlns="http://www.w3.org/2000/svg" fill="#000000">

  <defs>
    <!-- You can add gradient, pattern, or other elements here if needed -->
  </defs>

  <g id="SVGRepo_bgCarrier" stroke-width="0"/>
  <g id="SVGRepo_tracerCarrier" stroke-linecap="round" stroke-linejoin="round"/>
  <g id="SVGRepo_iconCarrier">
    <g transform="translate(-12,-484)">
      <path d="m 20,504 a 1,1 0 0 0 -1,1 1,1 0 0 0 1,1 h 8 a 1,1 0 0 0 1,-1 1,1 0 0 0 -1,-1 z"
        style="color:#ffffff;fill:#ffffff;fill-rule:evenodd;stroke-linecap:round;stroke-linejoin:round;stroke-miterlimit:4.1;" />
      <path d="m 22,501 a 1,1 0 0 0 -1,1 1,1 0 0 0 1,1 h 6 a 1,1 0 0 0 1,-1 1,1 0 0 0 -1,-1 z"
        style="color:#ffffff;fill:#ffffff;fill-rule:evenodd;stroke-linecap:round;stroke-linejoin:round;stroke-miterlimit:4.1;" />
      <path d="m 25,498 a 1,1 0 0 0 -1,1 1,1 0 0 0 1,1 h 3 a 1,1 0 0 0 1,-1 1,1 0 0 0 -1,-1 z"
        style="color:#ffffff;fill:#ffffff;fill-rule:evenodd;stroke-linecap:round;stroke-linejoin:round;stroke-miterlimit:4.1;" />
      <path d="m 19,491.01367 a 1,1 0 0 0 -1,1 v 2 a 1.0001,1.0001 0 0 0 1,1 h 2 a 1,1 0 0 0 1,-1 1,1 0 0 0 -1,-1 h -1 v -1 a 1,1 0 0 0 -1,-1 z"
        style="color:#ffffff;fill:#ffffff;fill-rule:evenodd;stroke-linecap:round;stroke-linejoin:round;stroke-miterlimit:4.1;" />
      <path d="m 19,488.01367 c -3.301857,0 -6,2.69815 -6,6 0,1.76801 0.774349,3.36262 2,4.46289 V 510 a 1.0001,1.0001 0 0 0 1,1 h 2.173828 c 0.415693,1.16039 1.530816,2 2.826172,2 1.295356,0 2.410479,-0.83961 2.826172,-2 H 31 33.173828 c 0.415693,1.16039 1.530816,2 2.826172,2 1.295356,0 2.410479,-0.83961 2.826172,-2 H 42 a 1.0001,1.0001 0 0 0 1,-1 v -7 a 1.0001,1.0001 0 0 0 -0.21875,-0.625 l -4,-5 A 1.0001,1.0001 0 0 0 38,497 h -6 v -2 a 1.0001,1.0001 0 0 0 -1,-1 h -6 c -0.0075,-3.29562 -2.702712,-5.98633 -6,-5.98633 z m 0,2 c 2.220979,0 4,1.77902 4,4 0,2.22098 -1.779021,4 -4,4 -0.83092,0 -1.601098,-0.24778 -2.238281,-0.67578 a 1,1 0 0 0 -0.347657,-0.26562 C 15.547849,496.34047 15,495.24535 15,494.01367 c 0,-2.22098 1.779021,-4 4,-4 z M 24.658203,496 H 30 v 13 H 23.826172 C 23.410479,507.83961 22.295356,507 21,507 c -1.295356,0 -2.410479,0.83961 -2.826172,2 H 17 v -9.33203 c 0.626269,0.22297 1.29935,0.3457 2,0.3457 2.606182,0 4.834183,-1.68167 5.658203,-4.01367 z M 32,499 h 2 v 5 a 1.0001,1.0001 0 0 0 1,1 h 6 v 4 H 38.826172 C 38.410479,507.83961 37.295356,507 36,507 c -1.295356,0 -2.410479,0.83961 -2.826172,2 H 32 Z m 4,0 h 1.519531 l 3.199219,4 H 36 Z m -15,10 c 0.564128,0 1,0.43587 1,1 0,0.56413 -0.435872,1 -1,1 -0.564128,0 -1,-0.43587 -1,-1 0,-0.56413 0.435872,-1 1,-1 z m 15,0 c 0.564128,0 1,0.43587 1,1 0,0.56413 -0.435872,1 -1,1 -0.564128,0 -1,-0.43587 -1,-1 0,-0.56413 0.435872,-1 1,-1 z"
        style="color:#ffffff;fill:#ffffff;fill-rule:evenodd;stroke-linecap:round;stroke-linejoin:round;stroke-miterlimit:4.1;" />
    </g>
  </g>
</svg>
